# MagicaVoxel @ Ephtracy

# group
o 

# material
mtllib SpaceShip-1.mtl
usemtl palette

# normals
vn -1 0 0
vn 1 0 0
vn 0 0 1
vn 0 0 -1
vn 0 -1 0
vn 0 1 0

# texcoords
vt 0.00195313 0.5
vt 0.0332031 0.5
vt 0.0371094 0.5
vt 0.0410156 0.5
vt 0.0449219 0.5

# verts
v -0.5 0.3 0.3
v -0.5 0.3 -0.3
v -0.5 0.5 0.3
v -0.5 0.5 -0.3
v -0.4 0.2 0.2
v -0.4 0.2 -0.2
v -0.4 0.3 0.4
v -0.4 0.3 0.3
v -0.4 0.3 0.2
v -0.4 0.3 -0.2
v -0.4 0.3 -0.3
v -0.4 0.3 -0.4
v -0.4 0.5 0.4
v -0.4 0.5 0.3
v -0.4 0.5 0.2
v -0.4 0.5 -0.2
v -0.4 0.5 -0.3
v -0.4 0.5 -0.4
v -0.4 0.6 0.2
v -0.4 0.6 -0.2
v -0.3 0.1 0.2
v -0.3 0.1 -0.2
v -0.3 0.2 0.3
v -0.3 0.2 0.2
v -0.3 0.2 -0.2
v -0.3 0.2 -0.3
v -0.3 0.3 0.3
v -0.3 0.3 0.2
v -0.3 0.3 -0.2
v -0.3 0.3 -0.3
v -0.3 0.5 0.3
v -0.3 0.5 0.2
v -0.3 0.5 -0.2
v -0.3 0.5 -0.3
v -0.3 0.6 0.3
v -0.3 0.6 0.2
v -0.3 0.6 -0.2
v -0.3 0.6 -0.3
v -0.3 0.7 0.2
v -0.3 0.7 -0.2
v -0.2 0.1 0.3
v -0.2 0.1 0.2
v -0.2 0.1 -0.2
v -0.2 0.1 -0.3
v -0.2 0.2 0.4
v -0.2 0.2 0.3
v -0.2 0.2 0.2
v -0.2 0.2 -0.2
v -0.2 0.2 -0.3
v -0.2 0.2 -0.4
v -0.2 0.3 0.4
v -0.2 0.3 0.3
v -0.2 0.3 -0.3
v -0.2 0.3 -0.4
v -0.2 0.5 0.4
v -0.2 0.5 0.3
v -0.2 0.5 -0.3
v -0.2 0.5 -0.4
v -0.2 0.6 0.4
v -0.2 0.6 0.3
v -0.2 0.6 0.2
v -0.2 0.6 -0.2
v -0.2 0.6 -0.3
v -0.2 0.6 -0.4
v -0.2 0.7 0.3
v -0.2 0.7 0.2
v -0.2 0.7 -0.2
v -0.2 0.7 -0.3
v -0.2 0.8 0.2
v -0.2 0.8 -0.2
v 0.1 0.1 0.1
v 0.1 0.1 -0.1
v 0.1 0.2 0.1
v 0.1 0.2 -0.1
v 0.1 0.7 0.1
v 0.1 0.7 -0.1
v 0.1 0.8 0.1
v 0.1 0.8 -0.1
v 0.2 0.3 0.4
v 0.2 0.3 0.3
v 0.2 0.5 0.4
v 0.2 0.5 0.3
v -0.2 0.3 0.4
v -0.2 0.3 0.3
v -0.2 0.5 0.4
v -0.2 0.5 0.3
v -0.1 0.1 0.1
v -0.1 0.1 -0.1
v -0.1 0.2 0.1
v -0.1 0.2 -0.1
v -0.1 0.7 0.1
v -0.1 0.7 -0.1
v -0.1 0.8 0.1
v -0.1 0.8 -0.1
v 0.2 0.1 0.3
v 0.2 0.1 0.2
v 0.2 0.1 -0.2
v 0.2 0.1 -0.3
v 0.2 0.2 0.4
v 0.2 0.2 0.3
v 0.2 0.2 0.2
v 0.2 0.2 -0.2
v 0.2 0.2 -0.3
v 0.2 0.2 -0.4
v 0.2 0.3 0.4
v 0.2 0.3 0.3
v 0.2 0.3 -0.3
v 0.2 0.3 -0.4
v 0.2 0.5 0.4
v 0.2 0.5 0.3
v 0.2 0.5 -0.3
v 0.2 0.5 -0.4
v 0.2 0.6 0.4
v 0.2 0.6 0.3
v 0.2 0.6 0.2
v 0.2 0.6 -0.2
v 0.2 0.6 -0.3
v 0.2 0.6 -0.4
v 0.2 0.7 0.3
v 0.2 0.7 0.2
v 0.2 0.7 -0.2
v 0.2 0.7 -0.3
v 0.2 0.8 0.2
v 0.2 0.8 -0.2
v 0.3 0.1 0.2
v 0.3 0.1 -0.2
v 0.3 0.2 0.3
v 0.3 0.2 0.2
v 0.3 0.2 -0.2
v 0.3 0.2 -0.3
v 0.3 0.3 0.3
v 0.3 0.3 0.2
v 0.3 0.3 -0.2
v 0.3 0.3 -0.3
v 0.3 0.5 0.3
v 0.3 0.5 0.2
v 0.3 0.5 -0.2
v 0.3 0.5 -0.3
v 0.3 0.6 0.3
v 0.3 0.6 0.2
v 0.3 0.6 -0.2
v 0.3 0.6 -0.3
v 0.3 0.7 0.2
v 0.3 0.7 -0.2
v 0.4 0.2 0.2
v 0.4 0.2 -0.2
v 0.4 0.3 0.4
v 0.4 0.3 0.3
v 0.4 0.3 0.2
v 0.4 0.3 -0.2
v 0.4 0.3 -0.3
v 0.4 0.3 -0.4
v 0.4 0.5 0.4
v 0.4 0.5 0.3
v 0.4 0.5 0.2
v 0.4 0.5 -0.2
v 0.4 0.5 -0.3
v 0.4 0.5 -0.4
v 0.4 0.6 0.2
v 0.4 0.6 -0.2
v 0.5 0.3 0.3
v 0.5 0.3 -0.3
v 0.5 0.5 0.3
v 0.5 0.5 -0.3
v -0.4 0.3 0.4
v -0.4 0.5 0.4
v -0.2 0.2 0.4
v -0.2 0.3 0.4
v -0.2 0.5 0.4
v -0.2 0.6 0.4
v 0.2 0.2 0.4
v 0.2 0.3 0.4
v 0.2 0.5 0.4
v 0.2 0.6 0.4
v 0.4 0.3 0.4
v 0.4 0.5 0.4
v -0.5 0.3 0.3
v -0.5 0.5 0.3
v -0.4 0.3 0.3
v -0.4 0.5 0.3
v -0.3 0.2 0.3
v -0.3 0.3 0.3
v -0.3 0.5 0.3
v -0.3 0.6 0.3
v -0.2 0.1 0.3
v -0.2 0.2 0.3
v -0.2 0.3 0.3
v -0.2 0.5 0.3
v -0.2 0.6 0.3
v -0.2 0.7 0.3
v 0.2 0.1 0.3
v 0.2 0.2 0.3
v 0.2 0.3 0.3
v 0.2 0.5 0.3
v 0.2 0.6 0.3
v 0.2 0.7 0.3
v 0.3 0.2 0.3
v 0.3 0.3 0.3
v 0.3 0.5 0.3
v 0.3 0.6 0.3
v 0.4 0.3 0.3
v 0.4 0.5 0.3
v 0.5 0.3 0.3
v 0.5 0.5 0.3
v -0.4 0.2 0.2
v -0.4 0.3 0.2
v -0.4 0.5 0.2
v -0.4 0.6 0.2
v -0.3 0.1 0.2
v -0.3 0.2 0.2
v -0.3 0.3 0.2
v -0.3 0.5 0.2
v -0.3 0.6 0.2
v -0.3 0.7 0.2
v -0.2 0.1 0.2
v -0.2 0.2 0.2
v -0.2 0.6 0.2
v -0.2 0.7 0.2
v -0.2 0.8 0.2
v 0.2 0.1 0.2
v 0.2 0.2 0.2
v 0.2 0.6 0.2
v 0.2 0.7 0.2
v 0.2 0.8 0.2
v 0.3 0.1 0.2
v 0.3 0.2 0.2
v 0.3 0.3 0.2
v 0.3 0.5 0.2
v 0.3 0.6 0.2
v 0.3 0.7 0.2
v 0.4 0.2 0.2
v 0.4 0.3 0.2
v 0.4 0.5 0.2
v 0.4 0.6 0.2
v -0.1 0.1 -0.1
v -0.1 0.2 -0.1
v -0.1 0.7 -0.1
v -0.1 0.8 -0.1
v 0.1 0.1 -0.1
v 0.1 0.2 -0.1
v 0.1 0.7 -0.1
v 0.1 0.8 -0.1
v -0.1 0.1 0.1
v -0.1 0.2 0.1
v -0.1 0.7 0.1
v -0.1 0.8 0.1
v 0.1 0.1 0.1
v 0.1 0.2 0.1
v 0.1 0.7 0.1
v 0.1 0.8 0.1
v -0.4 0.2 -0.2
v -0.4 0.3 -0.2
v -0.4 0.5 -0.2
v -0.4 0.6 -0.2
v -0.3 0.1 -0.2
v -0.3 0.2 -0.2
v -0.3 0.3 -0.2
v -0.3 0.5 -0.2
v -0.3 0.6 -0.2
v -0.3 0.7 -0.2
v -0.2 0.1 -0.2
v -0.2 0.2 -0.2
v -0.2 0.6 -0.2
v -0.2 0.7 -0.2
v -0.2 0.8 -0.2
v 0.2 0.1 -0.2
v 0.2 0.2 -0.2
v 0.2 0.6 -0.2
v 0.2 0.7 -0.2
v 0.2 0.8 -0.2
v 0.3 0.1 -0.2
v 0.3 0.2 -0.2
v 0.3 0.3 -0.2
v 0.3 0.5 -0.2
v 0.3 0.6 -0.2
v 0.3 0.7 -0.2
v 0.4 0.2 -0.2
v 0.4 0.3 -0.2
v 0.4 0.5 -0.2
v 0.4 0.6 -0.2
v -0.5 0.3 -0.3
v -0.5 0.5 -0.3
v -0.4 0.3 -0.3
v -0.4 0.5 -0.3
v -0.3 0.2 -0.3
v -0.3 0.3 -0.3
v -0.3 0.5 -0.3
v -0.3 0.6 -0.3
v -0.2 0.1 -0.3
v -0.2 0.2 -0.3
v -0.2 0.3 -0.3
v -0.2 0.5 -0.3
v -0.2 0.6 -0.3
v -0.2 0.7 -0.3
v 0.2 0.1 -0.3
v 0.2 0.2 -0.3
v 0.2 0.3 -0.3
v 0.2 0.5 -0.3
v 0.2 0.6 -0.3
v 0.2 0.7 -0.3
v 0.3 0.2 -0.3
v 0.3 0.3 -0.3
v 0.3 0.5 -0.3
v 0.3 0.6 -0.3
v 0.4 0.3 -0.3
v 0.4 0.5 -0.3
v 0.5 0.3 -0.3
v 0.5 0.5 -0.3
v -0.4 0.3 -0.4
v -0.4 0.5 -0.4
v -0.2 0.2 -0.4
v -0.2 0.3 -0.4
v -0.2 0.5 -0.4
v -0.2 0.6 -0.4
v 0.2 0.2 -0.4
v 0.2 0.3 -0.4
v 0.2 0.5 -0.4
v 0.2 0.6 -0.4
v 0.4 0.3 -0.4
v 0.4 0.5 -0.4
v -0.2 0.1 0.3
v 0.2 0.1 0.3
v -0.3 0.1 0.2
v -0.2 0.1 0.2
v 0.2 0.1 0.2
v 0.3 0.1 0.2
v -0.1 0.1 0.1
v 0.1 0.1 0.1
v -0.1 0.1 -0.1
v 0.1 0.1 -0.1
v -0.3 0.1 -0.2
v -0.2 0.1 -0.2
v 0.2 0.1 -0.2
v 0.3 0.1 -0.2
v -0.2 0.1 -0.3
v 0.2 0.1 -0.3
v -0.2 0.2 0.4
v 0.2 0.2 0.4
v -0.3 0.2 0.3
v -0.2 0.2 0.3
v 0.2 0.2 0.3
v 0.3 0.2 0.3
v -0.4 0.2 0.2
v -0.3 0.2 0.2
v -0.2 0.2 0.2
v 0.2 0.2 0.2
v 0.3 0.2 0.2
v 0.4 0.2 0.2
v -0.1 0.2 0.1
v 0.1 0.2 0.1
v -0.1 0.2 -0.1
v 0.1 0.2 -0.1
v -0.4 0.2 -0.2
v -0.3 0.2 -0.2
v -0.2 0.2 -0.2
v 0.2 0.2 -0.2
v 0.3 0.2 -0.2
v 0.4 0.2 -0.2
v -0.3 0.2 -0.3
v -0.2 0.2 -0.3
v 0.2 0.2 -0.3
v 0.3 0.2 -0.3
v -0.2 0.2 -0.4
v 0.2 0.2 -0.4
v -0.4 0.3 0.4
v -0.2 0.3 0.4
v 0.2 0.3 0.4
v 0.4 0.3 0.4
v -0.5 0.3 0.3
v -0.4 0.3 0.3
v -0.3 0.3 0.3
v -0.2 0.3 0.3
v 0.2 0.3 0.3
v 0.3 0.3 0.3
v 0.4 0.3 0.3
v 0.5 0.3 0.3
v -0.4 0.3 0.2
v -0.3 0.3 0.2
v 0.3 0.3 0.2
v 0.4 0.3 0.2
v -0.4 0.3 -0.2
v -0.3 0.3 -0.2
v 0.3 0.3 -0.2
v 0.4 0.3 -0.2
v -0.5 0.3 -0.3
v -0.4 0.3 -0.3
v -0.3 0.3 -0.3
v -0.2 0.3 -0.3
v 0.2 0.3 -0.3
v 0.3 0.3 -0.3
v 0.4 0.3 -0.3
v 0.5 0.3 -0.3
v -0.4 0.3 -0.4
v -0.2 0.3 -0.4
v 0.2 0.3 -0.4
v 0.4 0.3 -0.4
v -0.2 0.5 0.4
v 0.2 0.5 0.4
v -0.2 0.5 0.3
v 0.2 0.5 0.3
v -0.2 0.3 0.4
v 0.2 0.3 0.4
v -0.2 0.3 0.3
v 0.2 0.3 0.3
v -0.4 0.5 0.4
v -0.2 0.5 0.4
v 0.2 0.5 0.4
v 0.4 0.5 0.4
v -0.5 0.5 0.3
v -0.4 0.5 0.3
v -0.3 0.5 0.3
v -0.2 0.5 0.3
v 0.2 0.5 0.3
v 0.3 0.5 0.3
v 0.4 0.5 0.3
v 0.5 0.5 0.3
v -0.4 0.5 0.2
v -0.3 0.5 0.2
v 0.3 0.5 0.2
v 0.4 0.5 0.2
v -0.4 0.5 -0.2
v -0.3 0.5 -0.2
v 0.3 0.5 -0.2
v 0.4 0.5 -0.2
v -0.5 0.5 -0.3
v -0.4 0.5 -0.3
v -0.3 0.5 -0.3
v -0.2 0.5 -0.3
v 0.2 0.5 -0.3
v 0.3 0.5 -0.3
v 0.4 0.5 -0.3
v 0.5 0.5 -0.3
v -0.4 0.5 -0.4
v -0.2 0.5 -0.4
v 0.2 0.5 -0.4
v 0.4 0.5 -0.4
v -0.2 0.6 0.4
v 0.2 0.6 0.4
v -0.3 0.6 0.3
v -0.2 0.6 0.3
v 0.2 0.6 0.3
v 0.3 0.6 0.3
v -0.4 0.6 0.2
v -0.3 0.6 0.2
v -0.2 0.6 0.2
v 0.2 0.6 0.2
v 0.3 0.6 0.2
v 0.4 0.6 0.2
v -0.4 0.6 -0.2
v -0.3 0.6 -0.2
v -0.2 0.6 -0.2
v 0.2 0.6 -0.2
v 0.3 0.6 -0.2
v 0.4 0.6 -0.2
v -0.3 0.6 -0.3
v -0.2 0.6 -0.3
v 0.2 0.6 -0.3
v 0.3 0.6 -0.3
v -0.2 0.6 -0.4
v 0.2 0.6 -0.4
v -0.2 0.7 0.3
v 0.2 0.7 0.3
v -0.3 0.7 0.2
v -0.2 0.7 0.2
v 0.2 0.7 0.2
v 0.3 0.7 0.2
v -0.1 0.7 0.1
v 0.1 0.7 0.1
v -0.1 0.7 -0.1
v 0.1 0.7 -0.1
v -0.3 0.7 -0.2
v -0.2 0.7 -0.2
v 0.2 0.7 -0.2
v 0.3 0.7 -0.2
v -0.2 0.7 -0.3
v 0.2 0.7 -0.3
v -0.2 0.8 0.2
v 0.2 0.8 0.2
v -0.1 0.8 0.1
v 0.1 0.8 0.1
v -0.1 0.8 -0.1
v 0.1 0.8 -0.1
v -0.2 0.8 -0.2
v 0.2 0.8 -0.2

# faces
f 3/2/1 2/2/1 1/2/1
f 4/2/1 2/2/1 3/2/1
f 9/2/1 6/2/1 5/2/1
f 10/2/1 6/2/1 9/2/1
f 13/2/1 8/2/1 7/2/1
f 14/2/1 8/2/1 13/2/1
f 17/2/1 12/2/1 11/2/1
f 18/2/1 12/2/1 17/2/1
f 19/3/1 16/3/1 15/3/1
f 20/3/1 16/3/1 19/3/1
f 24/3/1 22/3/1 21/3/1
f 25/3/1 22/3/1 24/3/1
f 27/2/1 24/2/1 23/2/1
f 28/2/1 24/2/1 27/2/1
f 29/2/1 26/2/1 25/2/1
f 30/2/1 26/2/1 29/2/1
f 35/3/1 32/3/1 31/3/1
f 36/3/1 32/3/1 35/3/1
f 37/3/1 34/3/1 33/3/1
f 38/3/1 34/3/1 37/3/1
f 39/4/1 37/4/1 36/4/1
f 40/4/1 37/4/1 39/4/1
f 46/3/1 42/3/1 41/3/1
f 47/3/1 42/3/1 46/3/1
f 48/3/1 44/3/1 43/3/1
f 49/3/1 44/3/1 48/3/1
f 51/2/1 46/2/1 45/2/1
f 52/2/1 46/2/1 51/2/1
f 53/2/1 50/2/1 49/2/1
f 54/2/1 50/2/1 53/2/1
f 59/3/1 56/3/1 55/3/1
f 60/3/1 56/3/1 59/3/1
f 63/3/1 58/3/1 57/3/1
f 64/3/1 58/3/1 63/3/1
f 65/4/1 61/4/1 60/4/1
f 66/4/1 61/4/1 65/4/1
f 67/4/1 63/4/1 62/4/1
f 68/4/1 63/4/1 67/4/1
f 69/2/1 67/2/1 66/2/1
f 70/2/1 67/2/1 69/2/1
f 73/4/1 72/4/1 71/4/1
f 74/4/1 72/4/1 73/4/1
f 77/2/1 76/2/1 75/2/1
f 78/2/1 76/2/1 77/2/1
f 81/2/1 80/2/1 79/2/1
f 82/2/1 80/2/1 81/2/1
f 83/2/2 84/2/2 85/2/2
f 85/2/2 84/2/2 86/2/2
f 87/4/2 88/4/2 89/4/2
f 89/4/2 88/4/2 90/4/2
f 91/2/2 92/2/2 93/2/2
f 93/2/2 92/2/2 94/2/2
f 95/3/2 96/3/2 100/3/2
f 100/3/2 96/3/2 101/3/2
f 97/3/2 98/3/2 102/3/2
f 102/3/2 98/3/2 103/3/2
f 99/2/2 100/2/2 105/2/2
f 105/2/2 100/2/2 106/2/2
f 103/2/2 104/2/2 107/2/2
f 107/2/2 104/2/2 108/2/2
f 109/3/2 110/3/2 113/3/2
f 113/3/2 110/3/2 114/3/2
f 111/3/2 112/3/2 117/3/2
f 117/3/2 112/3/2 118/3/2
f 114/4/2 115/4/2 119/4/2
f 119/4/2 115/4/2 120/4/2
f 116/4/2 117/4/2 121/4/2
f 121/4/2 117/4/2 122/4/2
f 120/2/2 121/2/2 123/2/2
f 123/2/2 121/2/2 124/2/2
f 125/3/2 126/3/2 128/3/2
f 128/3/2 126/3/2 129/3/2
f 127/2/2 128/2/2 131/2/2
f 131/2/2 128/2/2 132/2/2
f 129/2/2 130/2/2 133/2/2
f 133/2/2 130/2/2 134/2/2
f 135/3/2 136/3/2 139/3/2
f 139/3/2 136/3/2 140/3/2
f 137/3/2 138/3/2 141/3/2
f 141/3/2 138/3/2 142/3/2
f 140/4/2 141/4/2 143/4/2
f 143/4/2 141/4/2 144/4/2
f 145/2/2 146/2/2 149/2/2
f 149/2/2 146/2/2 150/2/2
f 147/2/2 148/2/2 153/2/2
f 153/2/2 148/2/2 154/2/2
f 151/2/2 152/2/2 157/2/2
f 157/2/2 152/2/2 158/2/2
f 155/3/2 156/3/2 159/3/2
f 159/3/2 156/3/2 160/3/2
f 161/2/2 162/2/2 163/2/2
f 163/2/2 162/2/2 164/2/2
f 168/2/3 166/2/3 165/2/3
f 169/2/3 166/2/3 168/2/3
f 171/2/3 168/2/3 167/2/3
f 172/2/3 168/2/3 171/2/3
f 173/3/3 170/3/3 169/3/3
f 174/3/3 170/3/3 173/3/3
f 175/2/3 173/2/3 172/2/3
f 176/2/3 173/2/3 175/2/3
f 179/2/3 178/2/3 177/2/3
f 180/2/3 178/2/3 179/2/3
f 186/2/3 182/2/3 181/2/3
f 187/2/3 182/2/3 186/2/3
f 188/3/3 184/3/3 183/3/3
f 189/3/3 184/3/3 188/3/3
f 191/3/3 186/3/3 185/3/3
f 192/3/3 186/3/3 191/3/3
f 193/5/3 188/5/3 187/5/3
f 194/5/3 188/5/3 193/5/3
f 195/4/3 190/4/3 189/4/3
f 196/4/3 190/4/3 195/4/3
f 197/2/3 193/2/3 192/2/3
f 198/2/3 193/2/3 197/2/3
f 199/3/3 195/3/3 194/3/3
f 200/3/3 195/3/3 199/3/3
f 203/2/3 202/2/3 201/2/3
f 204/2/3 202/2/3 203/2/3
f 210/2/3 206/2/3 205/2/3
f 211/2/3 206/2/3 210/2/3
f 212/3/3 208/3/3 207/3/3
f 213/3/3 208/3/3 212/3/3
f 215/3/3 210/3/3 209/3/3
f 216/3/3 210/3/3 215/3/3
f 217/4/3 214/4/3 213/4/3
f 218/4/3 214/4/3 217/4/3
f 223/2/3 219/2/3 218/2/3
f 224/2/3 219/2/3 223/2/3
f 225/3/3 221/3/3 220/3/3
f 226/3/3 221/3/3 225/3/3
f 229/4/3 223/4/3 222/4/3
f 230/4/3 223/4/3 229/4/3
f 231/2/3 227/2/3 226/2/3
f 232/2/3 227/2/3 231/2/3
f 233/3/3 229/3/3 228/3/3
f 234/3/3 229/3/3 233/3/3
f 239/4/3 236/4/3 235/4/3
f 240/4/3 236/4/3 239/4/3
f 241/2/3 238/2/3 237/2/3
f 242/2/3 238/2/3 241/2/3
f 243/4/4 244/4/4 247/4/4
f 247/4/4 244/4/4 248/4/4
f 245/2/4 246/2/4 249/2/4
f 249/2/4 246/2/4 250/2/4
f 251/2/4 252/2/4 256/2/4
f 256/2/4 252/2/4 257/2/4
f 253/3/4 254/3/4 258/3/4
f 258/3/4 254/3/4 259/3/4
f 255/3/4 256/3/4 261/3/4
f 261/3/4 256/3/4 262/3/4
f 259/4/4 260/4/4 263/4/4
f 263/4/4 260/4/4 264/4/4
f 264/2/4 265/2/4 269/2/4
f 269/2/4 265/2/4 270/2/4
f 266/3/4 267/3/4 271/3/4
f 271/3/4 267/3/4 272/3/4
f 268/4/4 269/4/4 275/4/4
f 275/4/4 269/4/4 276/4/4
f 272/2/4 273/2/4 277/2/4
f 277/2/4 273/2/4 278/2/4
f 274/3/4 275/3/4 279/3/4
f 279/3/4 275/3/4 280/3/4
f 281/2/4 282/2/4 283/2/4
f 283/2/4 282/2/4 284/2/4
f 285/2/4 286/2/4 290/2/4
f 290/2/4 286/2/4 291/2/4
f 287/3/4 288/3/4 292/3/4
f 292/3/4 288/3/4 293/3/4
f 289/3/4 290/3/4 295/3/4
f 295/3/4 290/3/4 296/3/4
f 293/4/4 294/4/4 299/4/4
f 299/4/4 294/4/4 300/4/4
f 296/2/4 297/2/4 301/2/4
f 301/2/4 297/2/4 302/2/4
f 298/3/4 299/3/4 303/3/4
f 303/3/4 299/3/4 304/3/4
f 305/2/4 306/2/4 307/2/4
f 307/2/4 306/2/4 308/2/4
f 309/2/4 310/2/4 312/2/4
f 312/2/4 310/2/4 313/2/4
f 311/2/4 312/2/4 315/2/4
f 312/2/4 313/2/4 315/2/4
f 315/2/4 313/2/4 316/2/4
f 313/3/4 314/3/4 317/3/4
f 316/2/4 313/2/4 317/2/4
f 317/3/4 314/3/4 318/3/4
f 316/2/4 317/2/4 319/2/4
f 319/2/4 317/2/4 320/2/4
f 324/3/5 322/3/5 321/3/5
f 325/3/5 322/3/5 324/3/5
f 327/4/5 325/4/5 324/4/5
f 328/4/5 325/4/5 327/4/5
f 329/4/5 327/4/5 324/4/5
f 330/4/5 325/4/5 328/4/5
f 331/3/5 324/3/5 323/3/5
f 332/4/5 330/4/5 329/4/5
f 332/3/5 324/3/5 331/3/5
f 332/4/5 329/4/5 324/4/5
f 333/3/5 326/3/5 325/3/5
f 333/4/5 330/4/5 332/4/5
f 333/4/5 325/4/5 330/4/5
f 334/3/5 326/3/5 333/3/5
f 335/3/5 333/3/5 332/3/5
f 336/3/5 333/3/5 335/3/5
f 340/2/5 338/2/5 337/2/5
f 341/2/5 338/2/5 340/2/5
f 344/2/5 340/2/5 339/2/5
f 345/2/5 340/2/5 344/2/5
f 346/2/5 342/2/5 341/2/5
f 347/2/5 342/2/5 346/2/5
f 351/5/5 350/5/5 349/5/5
f 352/5/5 350/5/5 351/5/5
f 353/2/5 344/2/5 343/2/5
f 354/2/5 344/2/5 353/2/5
f 357/2/5 348/2/5 347/2/5
f 358/2/5 348/2/5 357/2/5
f 359/2/5 355/2/5 354/2/5
f 360/2/5 355/2/5 359/2/5
f 361/2/5 357/2/5 356/2/5
f 362/2/5 357/2/5 361/2/5
f 363/2/5 361/2/5 360/2/5
f 364/2/5 361/2/5 363/2/5
f 370/2/5 366/2/5 365/2/5
f 371/2/5 366/2/5 370/2/5
f 372/2/5 366/2/5 371/2/5
f 373/2/5 368/2/5 367/2/5
f 374/2/5 368/2/5 373/2/5
f 375/2/5 368/2/5 374/2/5
f 377/2/5 370/2/5 369/2/5
f 377/2/5 371/2/5 370/2/5
f 378/2/5 371/2/5 377/2/5
f 379/2/5 376/2/5 375/2/5
f 379/2/5 375/2/5 374/2/5
f 380/2/5 376/2/5 379/2/5
f 381/2/5 377/2/5 369/2/5
f 384/2/5 376/2/5 380/2/5
f 385/2/5 382/2/5 381/2/5
f 385/2/5 381/2/5 369/2/5
f 386/2/5 382/2/5 385/2/5
f 387/2/5 382/2/5 386/2/5
f 390/2/5 384/2/5 383/2/5
f 391/2/5 376/2/5 384/2/5
f 391/2/5 384/2/5 390/2/5
f 392/2/5 376/2/5 391/2/5
f 393/2/5 388/2/5 387/2/5
f 393/2/5 387/2/5 386/2/5
f 394/2/5 388/2/5 393/2/5
f 395/2/5 390/2/5 389/2/5
f 395/2/5 391/2/5 390/2/5
f 396/2/5 391/2/5 395/2/5
f 399/3/5 398/3/5 397/3/5
f 400/3/5 398/3/5 399/3/5
f 401/2/6 402/2/6 403/2/6
f 403/2/6 402/2/6 404/2/6
f 405/2/6 406/2/6 410/2/6
f 410/2/6 406/2/6 411/2/6
f 411/2/6 406/2/6 412/2/6
f 407/2/6 408/2/6 413/2/6
f 413/2/6 408/2/6 414/2/6
f 414/2/6 408/2/6 415/2/6
f 409/2/6 410/2/6 417/2/6
f 410/2/6 411/2/6 417/2/6
f 417/2/6 411/2/6 418/2/6
f 415/2/6 416/2/6 419/2/6
f 414/2/6 415/2/6 419/2/6
f 419/2/6 416/2/6 420/2/6
f 409/2/6 417/2/6 421/2/6
f 420/2/6 416/2/6 424/2/6
f 421/2/6 422/2/6 425/2/6
f 409/2/6 421/2/6 425/2/6
f 425/2/6 422/2/6 426/2/6
f 426/2/6 422/2/6 427/2/6
f 423/2/6 424/2/6 430/2/6
f 424/2/6 416/2/6 431/2/6
f 430/2/6 424/2/6 431/2/6
f 431/2/6 416/2/6 432/2/6
f 427/2/6 428/2/6 433/2/6
f 426/2/6 427/2/6 433/2/6
f 433/2/6 428/2/6 434/2/6
f 429/2/6 430/2/6 435/2/6
f 430/2/6 431/2/6 435/2/6
f 435/2/6 431/2/6 436/2/6
f 437/3/6 438/3/6 440/3/6
f 440/3/6 438/3/6 441/3/6
f 439/3/6 440/3/6 444/3/6
f 444/3/6 440/3/6 445/3/6
f 441/3/6 442/3/6 446/3/6
f 446/3/6 442/3/6 447/3/6
f 443/3/6 444/3/6 449/3/6
f 449/3/6 444/3/6 450/3/6
f 447/3/6 448/3/6 453/3/6
f 453/3/6 448/3/6 454/3/6
f 450/3/6 451/3/6 455/3/6
f 455/3/6 451/3/6 456/3/6
f 452/3/6 453/3/6 457/3/6
f 457/3/6 453/3/6 458/3/6
f 456/3/6 457/3/6 459/3/6
f 459/3/6 457/3/6 460/3/6
f 461/4/6 462/4/6 464/4/6
f 464/4/6 462/4/6 465/4/6
f 467/5/6 468/5/6 469/5/6
f 469/5/6 468/5/6 470/5/6
f 463/4/6 464/4/6 471/4/6
f 471/4/6 464/4/6 472/4/6
f 465/4/6 466/4/6 473/4/6
f 473/4/6 466/4/6 474/4/6
f 472/4/6 473/4/6 475/4/6
f 475/4/6 473/4/6 476/4/6
f 477/2/6 478/2/6 479/2/6
f 479/2/6 478/2/6 480/2/6
f 477/2/6 479/2/6 481/2/6
f 480/2/6 478/2/6 482/2/6
f 477/2/6 481/2/6 483/2/6
f 481/2/6 482/2/6 483/2/6
f 482/2/6 478/2/6 484/2/6
f 483/2/6 482/2/6 484/2/6
